<?xml version="1.0" encoding="utf-8"?>
<svg version="1.1" id="jogodatransformacao-logo" xmlns="http://www.w3.org/2000/svg" xmlns:xlink="http://www.w3.org/1999/xlink"
	 x="0px" y="0px" viewBox="0 0 382.4 217.6" style="enable-background:new 0 0 382.4 217.6;" xml:space="preserve">
<path id="text" d="M153.8,76.9v-0.3h4.4v0.3h-0.4c-0.4,0-0.7,0.1-0.9,0.4c-0.1,0.2-0.2,0.6-0.2,1.2v5.1c0,0.8-0.1,1.4-0.3,1.9
	c-0.2,0.5-0.5,0.9-0.9,1.3c-0.4,0.4-0.9,0.5-1.5,0.5c-0.5,0-0.8-0.1-1.1-0.4c-0.3-0.2-0.4-0.5-0.4-0.8c0-0.3,0.1-0.4,0.2-0.6
	c0.2-0.2,0.4-0.2,0.6-0.2c0.2,0,0.3,0.1,0.4,0.2c0.1,0.1,0.3,0.4,0.5,0.8c0.1,0.3,0.3,0.4,0.4,0.4c0.1,0,0.3-0.1,0.4-0.3
	c0.1-0.2,0.2-0.5,0.2-0.9v-7.1c0-0.5,0-0.9-0.1-1c0-0.1-0.2-0.2-0.3-0.3c-0.2-0.1-0.4-0.2-0.7-0.2H153.8L153.8,76.9z M23,94.9
	l0.3,6.5h-0.8c-0.2-1.1-0.4-2-0.6-2.5c-0.4-0.8-1-1.4-1.7-1.7c-0.7-0.4-1.6-0.6-2.8-0.6h-3.9v21.1c0,1.7,0.2,2.8,0.5,3.2
	c0.5,0.6,1.3,0.9,2.4,0.9h1v0.8H5.6v-0.8h1c1.2,0,2-0.4,2.5-1.1c0.3-0.4,0.5-1.4,0.5-3V96.6H6.3c-1.3,0-2.2,0.1-2.8,0.3
	c-0.7,0.3-1.3,0.8-1.8,1.5c-0.5,0.7-0.8,1.7-0.9,3H0l0.3-6.5H23L23,94.9z M217.2,140.7v0.3h-4.4v-0.3h0.4c0.4,0,0.7-0.1,0.9-0.4
	c0.1-0.2,0.2-0.6,0.2-1.2v-5.1c0-0.8,0.1-1.4,0.3-1.9c0.2-0.5,0.5-0.9,0.9-1.3c0.4-0.4,0.9-0.5,1.5-0.5c0.5,0,0.8,0.1,1.1,0.4
	c0.3,0.2,0.4,0.5,0.4,0.8c0,0.2-0.1,0.4-0.2,0.6c-0.2,0.2-0.4,0.2-0.6,0.2c-0.2,0-0.3-0.1-0.4-0.2c-0.1-0.1-0.3-0.4-0.5-0.8
	c-0.1-0.3-0.3-0.4-0.4-0.4c-0.1,0-0.3,0.1-0.4,0.3c-0.1,0.2-0.2,0.5-0.2,0.9v7.1c0,0.5,0,0.9,0.1,1c0,0.1,0.2,0.2,0.3,0.3
	c0.2,0.1,0.4,0.2,0.7,0.2H217.2L217.2,140.7z M375.1,76.2c1.2,0,2.4,0.3,3.6,0.9c1.2,0.6,2.1,1.5,2.7,2.7c0.7,1.2,1,2.4,1,3.6
	c0,1.3-0.3,2.5-1,3.6c-0.6,1.1-1.5,2-2.7,2.7c-1.1,0.6-2.4,1-3.6,1c-1.3,0-2.5-0.3-3.6-1c-1.1-0.6-2-1.5-2.7-2.7
	c-0.6-1.1-1-2.4-1-3.6c0-1.3,0.3-2.5,1-3.6c0.6-1.2,1.6-2.1,2.7-2.7C372.7,76.5,373.8,76.2,375.1,76.2L375.1,76.2z M375.1,76.8
	c-1.1,0-2.2,0.3-3.2,0.9c-1.1,0.6-1.9,1.4-2.5,2.4c-0.6,1.1-0.9,2.2-0.9,3.3c0,1.1,0.3,2.2,0.9,3.3c0.6,1,1.4,1.9,2.4,2.4
	s2.1,0.9,3.3,0.9c1.1,0,2.2-0.3,3.3-0.9c1.1-0.6,1.9-1.4,2.5-2.4c0.6-1,0.9-2.1,0.9-3.3c0-1.1-0.3-2.3-0.9-3.3
	c-0.6-1.1-1.4-1.9-2.5-2.4C377.3,77.1,376.2,76.8,375.1,76.8L375.1,76.8z M371.1,79h3.9c1,0,1.7,0.2,2.3,0.7c0.5,0.4,0.8,1,0.8,1.6
	c0,0.5-0.2,1-0.5,1.4c-0.4,0.4-0.9,0.7-1.7,0.9l2.1,3c0.3,0.4,0.5,0.6,0.7,0.7c0.1,0.1,0.3,0.1,0.5,0.2v0.3h-1.9l-3-4.1h-0.8v3.2
	c0,0.2,0.1,0.4,0.3,0.5c0.2,0.1,0.5,0.2,0.9,0.2v0.3h-3.8v-0.3c0.3,0,0.6,0,0.7-0.1c0.1-0.1,0.2-0.2,0.3-0.3c0-0.1,0.1-0.4,0.1-1
	v-5.3c0-0.5,0-0.8,0-0.9c0-0.2-0.1-0.3-0.3-0.4c-0.1-0.1-0.3-0.1-0.6-0.1V79L371.1,79z M373.5,83.3c0.8,0,1.4-0.1,1.7-0.2
	c0.4-0.2,0.7-0.4,0.8-0.7c0.2-0.3,0.3-0.6,0.3-1c0-0.6-0.2-1-0.6-1.4c-0.4-0.4-0.9-0.6-1.5-0.6c-0.3,0-0.5,0.1-0.8,0.2V83.3
	L373.5,83.3z M206.9,141.2c-1.3,0-2.5-0.5-3.5-1.5c-1-1-1.5-2.3-1.5-3.8c0-1.6,0.5-2.9,1.5-3.9c1-1,2.2-1.6,3.6-1.6
	c1.4,0,2.6,0.5,3.6,1.5c1,1,1.4,2.3,1.4,3.9c0,1.6-0.6,3-1.7,4C209.4,140.8,208.3,141.2,206.9,141.2L206.9,141.2z M207.1,140.7
	c0.9,0,1.7-0.3,2.2-1c0.7-0.9,1-2.1,1-3.8c0-1.7-0.4-3-1.1-3.9c-0.6-0.7-1.3-1-2.2-1c-1,0-1.8,0.4-2.4,1.1c-0.6,0.8-0.9,2-0.9,3.6
	c0,1.8,0.3,3.1,1,4C205.3,140.3,206.1,140.7,207.1,140.7L207.1,140.7z M191.8,141.2l-0.3-3.3h0.3c0.3,0.8,0.6,1.4,1,1.8
	c0.6,0.6,1.4,0.9,2.4,0.9c1.3,0,2.3-0.5,3-1.6c0.6-0.9,0.9-1.9,0.9-3.1c0-1-0.2-1.9-0.6-2.7c-0.4-0.8-0.9-1.4-1.5-1.8
	c-0.6-0.4-1.2-0.6-1.9-0.6c-0.4,0-0.7,0-1.1,0.1c-0.4,0.1-0.7,0.2-1,0.4v3c0,0.5,0,0.9,0.1,1c0.1,0.2,0.2,0.3,0.4,0.4
	c0.2,0.1,0.5,0.1,0.9,0.1v0.3h-4V136h0.2c0.4,0,0.7-0.1,0.8-0.4c0.1-0.2,0.1-0.6,0.1-1.1v-3.2c0.6-0.3,1.2-0.5,1.7-0.7
	c0.6-0.1,1.2-0.2,1.9-0.2c2,0,3.5,0.6,4.5,1.9c0.8,1,1.2,2.1,1.2,3.3c0,0.9-0.2,1.8-0.7,2.6c-0.5,1-1.2,1.8-2.1,2.3
	c-0.8,0.4-1.6,0.7-2.7,0.7c-0.4,0-0.7,0-1-0.1c-0.3-0.1-0.7-0.2-1.3-0.4c-0.3-0.1-0.5-0.2-0.6-0.2c-0.1,0-0.2,0-0.2,0.1
	c-0.1,0.1-0.1,0.3-0.1,0.5H191.8L191.8,141.2z M184.4,141.2c-1.3,0-2.5-0.5-3.5-1.5c-1-1-1.5-2.3-1.5-3.8c0-1.6,0.5-2.9,1.5-3.9
	c1-1,2.2-1.6,3.6-1.6c1.4,0,2.6,0.5,3.6,1.5c1,1,1.4,2.3,1.4,3.9c0,1.6-0.6,3-1.7,4C186.9,140.8,185.8,141.2,184.4,141.2
	L184.4,141.2z M184.6,140.7c0.9,0,1.7-0.3,2.2-1c0.7-0.9,1-2.1,1-3.8c0-1.7-0.4-3-1.1-3.9c-0.6-0.7-1.3-1-2.2-1
	c-1,0-1.8,0.4-2.4,1.1c-0.6,0.8-0.9,2-0.9,3.6c0,1.8,0.3,3.1,1,4C182.8,140.3,183.6,140.7,184.6,140.7L184.6,140.7z M174.7,130.6
	v0.3h-0.4c-0.4,0-0.7,0.1-0.9,0.4c-0.1,0.2-0.2,0.5-0.2,1.1v6.7c0,0.6,0.1,1,0.2,1.2c0.2,0.2,0.5,0.3,0.9,0.3h0.4v0.3h-4.2
	c-1.5,0-2.7-0.2-3.5-0.5c-0.8-0.4-1.5-0.9-1.9-1.8c-0.5-0.8-0.7-1.8-0.7-2.8c0-1.4,0.4-2.6,1.3-3.6c1-1.1,2.5-1.6,4.5-1.6H174.7
	L174.7,130.6z M171.8,131.4c-0.6-0.1-1.2-0.2-1.6-0.2c-1.2,0-2.1,0.4-2.9,1.2c-0.8,0.8-1.2,1.9-1.2,3.4c0,1.4,0.4,2.6,1.2,3.4
	c0.8,0.8,1.8,1.2,3,1.2c0.5,0,1-0.1,1.6-0.2V131.4L171.8,131.4z M156.6,134.1h4l0.7-1.6c0.2-0.4,0.3-0.7,0.3-0.9
	c0-0.2-0.1-0.3-0.2-0.4c-0.1-0.1-0.5-0.2-1-0.2v-0.3h3.3v0.3c-0.4,0.1-0.7,0.2-0.8,0.3c-0.3,0.2-0.5,0.7-0.9,1.5l-3.6,8.5H158
	l-3.6-8.6c-0.3-0.7-0.6-1.1-0.8-1.3c-0.2-0.2-0.6-0.3-1-0.3v-0.3h4.1v0.3c-0.4,0-0.7,0.1-0.8,0.2c-0.1,0.1-0.2,0.3-0.2,0.4
	c0,0.2,0.1,0.6,0.3,1.1L156.6,134.1L156.6,134.1z M156.8,134.6l1.7,4.2l1.8-4.2H156.8L156.8,134.6z M52.6,122.6h-7.4l-9.4-13
	c-0.7,0-1.2,0-1.7,0c-0.2,0-0.4,0-0.6,0c-0.2,0-0.4,0-0.6,0v8.1c0,1.7,0.2,2.8,0.6,3.2c0.5,0.6,1.3,0.9,2.3,0.9h1.1v0.8H25v-0.8h1
	c1.2,0,2-0.4,2.5-1.1c0.3-0.4,0.4-1.4,0.4-3V99.7c0-1.7-0.2-2.8-0.6-3.2c-0.5-0.6-1.3-0.9-2.4-0.9h-1v-0.8h10.1
	c2.9,0,5.1,0.2,6.5,0.6c1.4,0.4,2.6,1.2,3.6,2.4c1,1.1,1.5,2.5,1.5,4.1c0,1.7-0.6,3.2-1.7,4.4c-1.1,1.3-2.8,2.1-5.2,2.7l5.7,7.9
	c1.3,1.8,2.4,3,3.4,3.6c0.9,0.6,2.2,1,3.7,1.1V122.6L52.6,122.6z M32.9,108.3c0.3,0,0.5,0,0.7,0c0.2,0,0.3,0,0.5,0
	c2.6,0,4.6-0.6,5.9-1.7c1.3-1.1,2-2.6,2-4.4c0-1.7-0.5-3.1-1.6-4.2c-1.1-1.1-2.5-1.6-4.3-1.6c-0.8,0-1.8,0.1-3.2,0.4V108.3
	L32.9,108.3z M71.3,113.3H60.6l-1.9,4.3c-0.5,1.1-0.7,1.9-0.7,2.4c0,0.4,0.2,0.8,0.6,1.1c0.4,0.3,1.3,0.5,2.6,0.6v0.8h-8.7v-0.8
	c1.2-0.2,1.9-0.5,2.2-0.8c0.7-0.7,1.5-2,2.3-4l9.7-22.8h0.7l9.6,23c0.8,1.9,1.5,3.1,2.1,3.6c0.6,0.5,1.5,0.9,2.6,0.9v0.8H71v-0.8
	c1.1-0.1,1.8-0.2,2.2-0.6c0.4-0.3,0.6-0.7,0.6-1.1c0-0.6-0.3-1.5-0.8-2.8L71.3,113.3L71.3,113.3z M70.7,111.8L66,100.6l-4.8,11.2
	H70.7L70.7,111.8z M81.8,94.9h7.4l17,20.8v-16c0-1.7-0.2-2.8-0.6-3.2c-0.5-0.6-1.3-0.9-2.4-0.9h-1v-0.8h9.7v0.8h-1
	c-1.2,0-2,0.4-2.5,1.1c-0.3,0.4-0.5,1.4-0.5,3V123h-0.7L89,100.7v17.1c0,1.7,0.2,2.8,0.6,3.2c0.5,0.6,1.3,0.9,2.4,0.9h1v0.8h-9.7
	v-0.8h1c1.2,0,2-0.4,2.5-1.1c0.3-0.4,0.5-1.4,0.5-3V98.5c-0.8-0.9-1.4-1.6-1.8-1.9c-0.4-0.3-1-0.6-1.8-0.8c-0.4-0.1-1-0.2-1.8-0.2
	V94.9L81.8,94.9z M131.7,94.2v9.6H131c-0.2-1.8-0.7-3.3-1.3-4.4c-0.6-1.1-1.5-1.9-2.7-2.6c-1.2-0.6-2.4-1-3.6-1
	c-1.4,0-2.6,0.4-3.5,1.3c-0.9,0.9-1.4,1.9-1.4,3c0,0.8,0.3,1.6,0.9,2.3c0.8,1,2.9,2.4,6,4.1c2.6,1.4,4.4,2.5,5.3,3.2
	c0.9,0.7,1.7,1.6,2.2,2.6c0.5,1,0.8,2.1,0.8,3.2c0,2.1-0.8,3.9-2.4,5.4c-1.6,1.5-3.7,2.3-6.3,2.3c-0.8,0-1.6-0.1-2.3-0.2
	c-0.4-0.1-1.3-0.3-2.6-0.8c-1.3-0.4-2.2-0.6-2.5-0.6c-0.3,0-0.6,0.1-0.8,0.3c-0.2,0.2-0.3,0.6-0.4,1.3h-0.8v-9.5h0.8
	c0.4,2,0.8,3.5,1.4,4.5c0.6,1,1.5,1.8,2.8,2.5c1.2,0.7,2.6,1,4.1,1c1.7,0,3.1-0.5,4-1.4c1-0.9,1.5-2,1.5-3.2c0-0.7-0.2-1.4-0.6-2.1
	c-0.4-0.7-1-1.3-1.7-1.9c-0.5-0.4-2-1.3-4.4-2.6c-2.4-1.3-4.1-2.4-5.1-3.2c-1-0.8-1.8-1.7-2.3-2.6c-0.5-1-0.8-2-0.8-3.1
	c0-2,0.8-3.7,2.3-5.1c1.5-1.4,3.5-2.2,5.8-2.2c1.5,0,3,0.4,4.7,1.1c0.8,0.3,1.3,0.5,1.6,0.5c0.4,0,0.6-0.1,0.9-0.3
	c0.2-0.2,0.4-0.6,0.5-1.3H131.7L131.7,94.2z M144.3,96.4v10.9h5c1.2,0,2-0.3,2.6-0.8c0.5-0.5,0.9-1.5,1.1-3.1h0.8v9.4H153
	c0-1.1-0.2-1.9-0.4-2.4c-0.3-0.5-0.6-0.9-1.1-1.1c-0.5-0.3-1.2-0.4-2.1-0.4h-5v8.7c0,1.4,0.1,2.3,0.3,2.8c0.1,0.3,0.4,0.6,0.8,0.9
	c0.6,0.3,1.2,0.5,1.9,0.5h1v0.8h-11.9v-0.8h1c1.1,0,2-0.3,2.5-1c0.3-0.4,0.5-1.5,0.5-3.1V99.7c0-1.4-0.1-2.3-0.3-2.8
	c-0.1-0.3-0.4-0.6-0.8-0.9c-0.6-0.3-1.2-0.5-1.9-0.5h-1v-0.8H157l0.3,6.1h-0.7c-0.4-1.3-0.8-2.3-1.2-2.9c-0.5-0.6-1.1-1.1-1.7-1.3
	c-0.7-0.3-1.7-0.4-3.2-0.4H144.3L144.3,96.4z M174.3,94.2c3.6,0,6.7,1.4,9.3,4.1c2.6,2.7,3.9,6.1,3.9,10.2c0,4.2-1.3,7.7-4,10.5
	c-2.6,2.8-5.9,4.2-9.6,4.2c-3.8,0-7-1.4-9.6-4.1c-2.6-2.7-3.9-6.2-3.9-10.5c0-4.4,1.5-8,4.5-10.8C167.6,95.4,170.7,94.2,174.3,94.2
	L174.3,94.2z M173.9,95.7c-2.5,0-4.5,0.9-5.9,2.8c-1.9,2.3-2.8,5.6-2.8,10.1c0,4.5,1,8,2.9,10.4c1.5,1.9,3.4,2.8,5.9,2.8
	c2.6,0,4.7-1,6.4-3c1.7-2,2.5-5.2,2.5-9.6c0-4.7-0.9-8.3-2.8-10.6C178.6,96.6,176.5,95.7,173.9,95.7L173.9,95.7z M217.4,122.6H210
	l-9.4-13c-0.7,0-1.2,0-1.7,0c-0.2,0-0.4,0-0.6,0c-0.2,0-0.4,0-0.6,0v8.1c0,1.7,0.2,2.8,0.6,3.2c0.5,0.6,1.3,0.9,2.3,0.9h1.1v0.8
	h-11.9v-0.8h1c1.2,0,2-0.4,2.5-1.1c0.3-0.4,0.4-1.4,0.4-3V99.7c0-1.7-0.2-2.8-0.6-3.2c-0.5-0.6-1.3-0.9-2.4-0.9h-1v-0.8H200
	c2.9,0,5.1,0.2,6.5,0.6c1.4,0.4,2.6,1.2,3.6,2.4c1,1.1,1.5,2.5,1.5,4.1c0,1.7-0.6,3.2-1.7,4.4c-1.1,1.3-2.8,2.1-5.2,2.7l5.7,7.9
	c1.3,1.8,2.4,3,3.4,3.6c0.9,0.6,2.2,1,3.7,1.1V122.6L217.4,122.6z M197.8,108.3c0.3,0,0.5,0,0.7,0c0.2,0,0.3,0,0.5,0
	c2.6,0,4.6-0.6,5.9-1.7c1.3-1.1,2-2.6,2-4.4c0-1.7-0.5-3.1-1.6-4.2c-1.1-1.1-2.5-1.6-4.3-1.6c-0.8,0-1.8,0.1-3.2,0.4V108.3
	L197.8,108.3z M234.1,122.6l-10.7-23.3v18.5c0,1.7,0.2,2.8,0.6,3.2c0.5,0.6,1.3,0.9,2.4,0.9h1v0.8h-9.7v-0.8h1c1.2,0,2-0.4,2.5-1.1
	c0.3-0.4,0.5-1.4,0.5-3V99.7c0-1.2-0.1-2.1-0.4-2.7c-0.2-0.4-0.5-0.7-1.1-1c-0.5-0.3-1.4-0.4-2.5-0.4v-0.8h7.9l10,21.7l9.9-21.7h7.9
	v0.8h-1c-1.2,0-2,0.4-2.5,1.1c-0.3,0.4-0.5,1.4-0.5,3v18.1c0,1.7,0.2,2.8,0.6,3.2c0.5,0.6,1.3,0.9,2.4,0.9h1v0.8h-11.9v-0.8h1
	c1.2,0,2-0.4,2.5-1.1c0.3-0.4,0.5-1.4,0.5-3V99.3l-10.7,23.3H234.1L234.1,122.6z M273.3,113.3h-10.7l-1.9,4.3
	c-0.5,1.1-0.7,1.9-0.7,2.4c0,0.4,0.2,0.8,0.6,1.1c0.4,0.3,1.3,0.5,2.6,0.6v0.8h-8.7v-0.8c1.2-0.2,1.9-0.5,2.2-0.8
	c0.7-0.7,1.5-2,2.3-4l9.7-22.8h0.7l9.6,23c0.8,1.9,1.5,3.1,2.1,3.6c0.6,0.5,1.5,0.9,2.6,0.9v0.8H273v-0.8c1.1-0.1,1.8-0.2,2.2-0.6
	c0.4-0.3,0.6-0.7,0.6-1.1c0-0.6-0.3-1.5-0.8-2.8L273.3,113.3L273.3,113.3z M272.7,111.8l-4.7-11.2l-4.8,11.2H272.7L272.7,111.8z
	 M309.5,94.2l0.6,9.4h-0.6c-0.8-2.8-2-4.8-3.6-6.1c-1.6-1.2-3.4-1.9-5.6-1.9c-1.8,0-3.5,0.5-5,1.4c-1.5,0.9-2.6,2.4-3.5,4.5
	c-0.8,2-1.3,4.6-1.3,7.6c0,2.5,0.4,4.7,1.2,6.5c0.8,1.8,2,3.2,3.6,4.2c1.6,1,3.4,1.5,5.5,1.5c1.8,0,3.4-0.4,4.7-1.1
	c1.4-0.8,2.9-2.3,4.5-4.6l0.6,0.4c-1.4,2.5-3,4.3-4.8,5.4c-1.8,1.1-4,1.7-6.6,1.7c-4.6,0-8.1-1.7-10.6-5.1c-1.9-2.5-2.8-5.5-2.8-8.9
	c0-2.8,0.6-5.3,1.9-7.6c1.2-2.3,2.9-4.1,5.1-5.4c2.2-1.3,4.5-1.9,7.1-1.9c2,0,4,0.5,5.9,1.5c0.6,0.3,1,0.5,1.2,0.5
	c0.4,0,0.7-0.1,1-0.4c0.4-0.4,0.6-0.9,0.8-1.5H309.5L309.5,94.2z M298.8,122.6h1.2l-1,1.6c0.9,0.2,1.5,0.6,1.9,1.1
	c0.4,0.5,0.6,1.1,0.6,1.9c0,1-0.4,1.8-1.2,2.6c-0.8,0.7-1.9,1.1-3.2,1.1c-0.5,0-1.1,0-1.9-0.1v-0.9c0.4,0.1,0.7,0.1,1,0.1
	c0.7,0,1.3-0.2,1.8-0.7c0.5-0.5,0.7-1,0.7-1.6c0-0.4-0.2-0.8-0.5-1.1c-0.3-0.3-0.7-0.5-1.2-0.5c-0.1,0-0.3,0-0.5,0L298.8,122.6
	L298.8,122.6z M331.4,113.3h-10.7l-1.9,4.3c-0.5,1.1-0.7,1.9-0.7,2.4c0,0.4,0.2,0.8,0.6,1.1c0.4,0.3,1.3,0.5,2.6,0.6v0.8h-8.7v-0.8
	c1.2-0.2,1.9-0.5,2.2-0.8c0.7-0.7,1.5-2,2.3-4l9.7-22.8h0.7l9.6,23c0.8,1.9,1.5,3.1,2.1,3.6c0.6,0.5,1.5,0.9,2.6,0.9v0.8H331v-0.8
	c1.1-0.1,1.8-0.2,2.2-0.6c0.4-0.3,0.6-0.7,0.6-1.1c0-0.6-0.3-1.5-0.8-2.8L331.4,113.3L331.4,113.3z M330.8,111.8l-4.7-11.2
	l-4.8,11.2H330.8L330.8,111.8z M320.9,92.1h-0.7c0.1-1.9,0.4-3.3,1.2-4.1c0.7-0.8,1.6-1.3,2.7-1.3c0.6,0,1.1,0.1,1.5,0.3
	c0.6,0.2,1.5,0.7,2.6,1.5c1.1,0.7,1.9,1.1,2.5,1.1c0.4,0,0.8-0.2,1.1-0.5c0.3-0.4,0.6-1.1,0.8-2.3h0.6c0,1.3-0.2,2.3-0.5,3
	c-0.3,0.7-0.8,1.3-1.5,1.7c-0.6,0.4-1.3,0.6-1.9,0.6c-1.1,0-2.4-0.6-4-1.7c-0.9-0.6-1.4-1-1.7-1.1c-0.3-0.1-0.6-0.2-0.9-0.2
	c-0.6,0-1,0.3-1.3,0.8C321.3,90.2,321.1,90.9,320.9,92.1L320.9,92.1z M357.7,94.2c3.6,0,6.7,1.4,9.3,4.1c2.6,2.7,3.9,6.1,3.9,10.2
	c0,4.2-1.3,7.7-4,10.5c-2.6,2.8-5.9,4.2-9.6,4.2c-3.8,0-7-1.4-9.6-4.1c-2.6-2.7-3.9-6.2-3.9-10.5c0-4.4,1.5-8,4.5-10.8
	C351,95.4,354.1,94.2,357.7,94.2L357.7,94.2z M357.3,95.7c-2.5,0-4.5,0.9-5.9,2.8c-1.9,2.3-2.8,5.6-2.8,10.1c0,4.5,1,8,2.9,10.4
	c1.5,1.9,3.4,2.8,5.9,2.8c2.6,0,4.7-1,6.4-3c1.7-2,2.5-5.2,2.5-9.6c0-4.7-0.9-8.3-2.8-10.6C362,96.6,359.9,95.7,357.3,95.7
	L357.3,95.7z M164.1,76.4c1.3,0,2.5,0.5,3.5,1.5c1,1,1.5,2.3,1.5,3.8c0,1.6-0.5,2.9-1.5,3.9c-1,1-2.2,1.6-3.6,1.6
	c-1.4,0-2.6-0.5-3.6-1.5c-1-1-1.4-2.3-1.4-3.9c0-1.6,0.6-3,1.7-4C161.6,76.8,162.7,76.4,164.1,76.4L164.1,76.4z M163.9,76.9
	c-0.9,0-1.7,0.3-2.2,1c-0.7,0.9-1,2.1-1,3.8c0,1.7,0.4,3,1.1,3.9c0.6,0.7,1.3,1,2.2,1c1,0,1.8-0.4,2.4-1.1c0.6-0.8,0.9-1.9,0.9-3.6
	c0-1.8-0.3-3.1-1-4C165.7,77.3,164.9,76.9,163.9,76.9L163.9,76.9z M179.2,76.4l0.3,3.3h-0.3c-0.3-0.8-0.6-1.4-1-1.8
	c-0.6-0.6-1.4-0.9-2.4-0.9c-1.3,0-2.3,0.5-3,1.6c-0.6,0.9-0.9,1.9-0.9,3.1c0,1,0.2,1.9,0.6,2.7c0.4,0.8,0.9,1.4,1.5,1.8
	c0.6,0.4,1.2,0.6,1.9,0.6c0.4,0,0.7,0,1.1-0.1c0.4-0.1,0.7-0.2,1-0.4v-3c0-0.5,0-0.9-0.1-1c-0.1-0.2-0.2-0.3-0.4-0.4
	c-0.2-0.1-0.5-0.1-0.9-0.1v-0.3h4v0.3h-0.2c-0.4,0-0.7,0.1-0.8,0.4c-0.1,0.2-0.2,0.6-0.2,1.1v3.2c-0.6,0.3-1.2,0.5-1.7,0.7
	c-0.6,0.1-1.2,0.2-1.9,0.2c-2,0-3.5-0.6-4.5-1.9c-0.8-1-1.2-2.1-1.2-3.3c0-0.9,0.2-1.8,0.7-2.6c0.5-1,1.2-1.8,2.1-2.3
	c0.8-0.4,1.6-0.7,2.7-0.7c0.4,0,0.7,0,1,0.1c0.3,0.1,0.7,0.2,1.3,0.4c0.3,0.1,0.5,0.2,0.6,0.2c0.1,0,0.2,0,0.2-0.1
	c0.1-0.1,0.1-0.3,0.1-0.5H179.2L179.2,76.4z M186.6,76.4c1.3,0,2.5,0.5,3.5,1.5c1,1,1.5,2.3,1.5,3.8c0,1.6-0.5,2.9-1.5,3.9
	c-1,1-2.2,1.6-3.6,1.6c-1.4,0-2.6-0.5-3.6-1.5c-1-1-1.4-2.3-1.4-3.9c0-1.6,0.6-3,1.7-4C184.1,76.8,185.2,76.4,186.6,76.4L186.6,76.4
	z M186.4,76.9c-0.9,0-1.7,0.3-2.2,1c-0.7,0.9-1,2.1-1,3.8c0,1.7,0.4,3,1.1,3.9c0.6,0.7,1.3,1,2.2,1c1,0,1.8-0.4,2.4-1.1
	c0.6-0.8,0.9-1.9,0.9-3.6c0-1.8-0.3-3.1-1-4C188.2,77.3,187.4,76.9,186.4,76.9L186.4,76.9z M196.3,86.9v-0.3h0.4
	c0.4,0,0.7-0.1,0.9-0.4c0.1-0.2,0.2-0.5,0.2-1.1v-6.7c0-0.6-0.1-1-0.2-1.2c-0.2-0.2-0.5-0.3-0.9-0.3h-0.4v-0.3h4.2
	c1.5,0,2.7,0.2,3.5,0.5c0.8,0.4,1.5,0.9,1.9,1.8c0.5,0.8,0.7,1.8,0.7,2.8c0,1.4-0.4,2.6-1.3,3.6c-1,1.1-2.5,1.6-4.5,1.6H196.3
	L196.3,86.9z M199.2,86.2c0.6,0.1,1.2,0.2,1.6,0.2c1.2,0,2.1-0.4,2.9-1.2c0.8-0.8,1.2-1.9,1.2-3.4c0-1.4-0.4-2.6-1.2-3.4
	c-0.8-0.8-1.8-1.2-3-1.2c-0.5,0-1,0.1-1.6,0.2V86.2L199.2,86.2z M214.4,83.5h-4l-0.7,1.6c-0.2,0.4-0.3,0.7-0.3,0.9
	c0,0.2,0.1,0.3,0.2,0.4c0.1,0.1,0.5,0.2,1,0.2v0.3h-3.3v-0.3c0.4-0.1,0.7-0.2,0.8-0.3c0.3-0.2,0.5-0.7,0.9-1.5l3.6-8.5h0.3l3.6,8.6
	c0.3,0.7,0.6,1.1,0.8,1.3c0.2,0.2,0.6,0.3,1,0.3v0.3h-4.1v-0.3c0.4,0,0.7-0.1,0.8-0.2c0.1-0.1,0.2-0.3,0.2-0.4
	c0-0.2-0.1-0.6-0.3-1.1L214.4,83.5L214.4,83.5z M214.2,82.9l-1.7-4.2l-1.8,4.2H214.2L214.2,82.9z"/>
<path id="frame" d="M150.4,40.4c4.7-2.4,9.6-4.3,14.6-5.6c6.7-1.8,13.6-2.8,20.5-2.8s13.8,0.9,20.5,2.8c5,1.4,9.9,3.3,14.6,5.6
	L185.5,5.3L150.4,40.4L150.4,40.4z M253.9,73.7c1,2,2,4.1,2.8,6.2c1.5,3.7,2.7,7.5,3.6,11.4l0.2,0.9h-0.9h-2.4h-0.6l-0.1-0.5
	c-1.5-6.4-4-12.7-7.3-18.6c-3.2-5.7-7.2-11.1-12.1-15.9c-7-7-15-12.2-23.7-15.8c-8.4-3.5-17.4-5.3-26.4-5.5l35.6,35.6l0.1,0.1l0,0
	l0,0l19.5,19.5l1.2,1.2H242h-3.3h-0.3l-0.2-0.2l-4.2-4.2c0.5,1.1,0.9,2.3,1.3,3.5l0.3,0.9h-1h-2.4h-0.5l-0.2-0.5
	c-1.2-3.3-2.8-6.4-4.7-9.4c-1.9-2.9-4-5.6-6.6-8.2l0,0l0,0c-4.7-4.7-10.1-8.2-15.9-10.6c-6-2.5-12.5-3.7-18.9-3.7
	c-6.4,0-12.9,1.2-18.9,3.7c-5.8,2.4-11.2,5.9-15.9,10.6l0,0l0,0c-2.5,2.5-4.7,5.3-6.6,8.2c-1.9,3-3.5,6.2-4.7,9.4l-0.2,0.5h-0.5
	h-2.4h-1l0.3-0.9c0.4-1.2,0.9-2.3,1.3-3.5l-4.2,4.2l-0.2,0.2h-0.3H129h-1.7l1.2-1.2l19.5-19.5l0,0l0,0l0.1-0.1v0l35.6-35.6
	c-9,0.2-17.9,2.1-26.4,5.5c-8.6,3.6-16.7,8.8-23.7,15.8c-4.8,4.8-8.9,10.2-12.1,15.9c-3.3,5.9-5.7,12.2-7.3,18.6l-0.1,0.5h-0.6h-2.4
	h-0.9l0.2-0.9c0.9-3.9,2.1-7.6,3.6-11.4c0.8-2.1,1.8-4.2,2.8-6.2L98.8,91.9l-0.2,0.2h-0.3h-3.3h-1.7l1.2-1.2l89.6-89.6l0,0l0.8-0.8
	l0.5-0.5l0.5,0.5l0.8,0.8l89.6,89.6l1.2,1.2h-1.7h-3.3h-0.3l-0.2-0.2L253.9,73.7L253.9,73.7z M260.3,126.3
	c-0.9,3.9-2.1,7.6-3.6,11.4c-0.8,2.1-1.8,4.2-2.8,6.2l18.2-18.2l0.2-0.2h0.3h3.3h1.7l-1.2,1.2L240.1,163v0l-0.2,0.2l-53.1,53.1l0,0
	l-0.8,0.8l-0.5,0.5l-0.5-0.5l-0.8-0.8l0,0l-53.1-53.1l-0.2-0.2v0l-36.3-36.3l-1.2-1.2h1.7h3.3h0.3l0.2,0.2l18.2,18.2
	c-1-2-2-4.1-2.8-6.2c-1.5-3.7-2.7-7.5-3.6-11.4l-0.2-0.9h0.9h2.4h0.6l0.1,0.5c1.5,6.4,4,12.7,7.3,18.6c3.2,5.7,7.2,11.1,12.1,15.9
	c7,7,15,12.2,23.7,15.8c8.4,3.5,17.4,5.3,26.4,5.5l-35.6-35.6v0l-0.1-0.1l0,0l-19.6-19.6l-1.2-1.2h1.7h3.3h0.3l0.2,0.2l4.2,4.2
	c-0.5-1.1-0.9-2.3-1.3-3.5l-0.3-0.9h1h2.4h0.5l0.2,0.5c1.2,3.3,2.8,6.4,4.7,9.4c1.9,2.9,4.1,5.7,6.6,8.2l0,0
	c4.7,4.7,10.1,8.2,15.9,10.6c6,2.5,12.5,3.7,18.9,3.7c6.4,0,12.9-1.2,18.9-3.7c5.8-2.4,11.2-5.9,15.9-10.6l0,0l0,0
	c2.5-2.5,4.7-5.3,6.6-8.2c1.9-3,3.5-6.2,4.7-9.4l0.2-0.5h0.5h2.4h1l-0.3,0.9c-0.4,1.2-0.9,2.3-1.3,3.5l4.2-4.2l0.2-0.2h0.3h3.3h1.7
	l-1.2,1.2l-19.6,19.6l-0.1,0.1l-35.6,35.6c9-0.2,17.9-2.1,26.4-5.5c8.6-3.6,16.7-8.8,23.7-15.8c4.8-4.8,8.9-10.2,12.1-15.9
	c3.3-5.9,5.7-12.2,7.3-18.6l0.1-0.5h0.6h2.4h0.9L260.3,126.3L260.3,126.3z M220.6,177.2c-4.7,2.4-9.6,4.3-14.6,5.6
	c-6.7,1.8-13.6,2.8-20.5,2.8c-6.9,0-13.8-0.9-20.5-2.8c-5-1.4-9.9-3.3-14.6-5.6l35.1,35.1L220.6,177.2L220.6,177.2z M164.4,60.3
	c2.7-1.2,5.4-2.1,8.2-2.8c4.2-1,8.5-1.6,12.8-1.6c4.3,0,8.6,0.5,12.8,1.6c2.8,0.7,5.6,1.6,8.3,2.8l-21.1-21.1L164.4,60.3L164.4,60.3
	z M206.6,157.3c-2.7,1.2-5.4,2.1-8.3,2.8c-4.2,1-8.5,1.6-12.8,1.6c-4.3,0-8.6-0.5-12.8-1.6c-2.8-0.7-5.6-1.6-8.3-2.8l21.1,21.1
	L206.6,157.3L206.6,157.3z"/>
</svg>
