<?xml version="1.0" encoding="utf-8"?>
<svg version="1.1" id="pantanal-logo" xmlns="http://www.w3.org/2000/svg" xmlns:xlink="http://www.w3.org/1999/xlink" x="0px" y="0px"
	 viewBox="0 0 91.5 41.7" enable-background="new 0 0 91.5 41.7" xml:space="preserve">
<g>
	<polygon fill-rule="evenodd" clip-rule="evenodd" fill="#001F66" points="87.6,17.2 91.5,17.2 91.5,0 87.6,0 87.6,17.2 	"/>
	<path fill-rule="evenodd" clip-rule="evenodd" fill="#001F66" d="M78.4,17.5c1.8,0,2.9-0.6,3.6-1.7h0c0.1,0.6,0.2,1.1,0.4,1.4h3.8
		V17c-0.3-0.2-0.4-0.8-0.4-1.8V9c0-1.5-0.5-2.7-1.6-3.5c-0.9-0.7-2.1-1-4-1c-3.7,0-5.5,1.9-5.6,4.2h3.6c0.1-1,0.7-1.6,2-1.6
		c1.2,0,1.7,0.5,1.7,1.3c0,0.8-0.8,1.1-3.1,1.4c-2.5,0.3-4.7,1.2-4.7,3.9C74.2,16.2,75.9,17.5,78.4,17.5L78.4,17.5z M79.6,15
		c-1,0-1.7-0.4-1.7-1.4c0-0.9,0.6-1.3,2.1-1.7c0.8-0.2,1.5-0.4,2-0.6v1.5C82.1,14.1,81.1,15,79.6,15L79.6,15z"/>
	<path fill-rule="evenodd" clip-rule="evenodd" fill="#001F66" d="M61.3,17.2h3.9v-6.8c0-1.5,0.9-2.6,2.2-2.6c1.3,0,1.9,0.9,1.9,2.2
		v7.2h3.9v-8c0-2.7-1.6-4.7-4.3-4.7c-1.7,0-2.9,0.7-3.8,2H65V4.9h-3.8V17.2L61.3,17.2z"/>
	<path fill-rule="evenodd" clip-rule="evenodd" fill="#001F66" d="M52.1,17.5c1.8,0,2.9-0.6,3.6-1.7h0c0.1,0.6,0.2,1.1,0.4,1.4H60
		V17c-0.3-0.2-0.4-0.8-0.4-1.8V9c0-1.5-0.5-2.7-1.6-3.5c-0.9-0.7-2.1-1-4-1c-3.7,0-5.5,1.9-5.6,4.2H52c0.1-1,0.7-1.6,2-1.6
		c1.2,0,1.7,0.5,1.7,1.3c0,0.8-0.8,1.1-3.1,1.4c-2.5,0.3-4.7,1.2-4.7,3.9C47.9,16.2,49.6,17.5,52.1,17.5L52.1,17.5z M53.3,15
		c-1,0-1.7-0.4-1.7-1.4c0-0.9,0.6-1.3,2.1-1.7c0.8-0.2,1.5-0.4,2-0.6v1.5C55.8,14.1,54.8,15,53.3,15L53.3,15z"/>
	<path fill-rule="evenodd" clip-rule="evenodd" fill="#001F66" d="M26.7,17.2h3.9v-6.8c0-1.5,0.9-2.6,2.2-2.6c1.3,0,1.9,0.9,1.9,2.2
		v7.2h3.9v-8c0-2.7-1.6-4.7-4.3-4.7c-1.7,0-2.9,0.7-3.8,2h-0.1V4.9h-3.8V17.2L26.7,17.2z"/>
	<path fill-rule="evenodd" clip-rule="evenodd" fill="#001F66" d="M17.6,17.5c1.8,0,2.9-0.6,3.6-1.7h0c0.1,0.6,0.2,1.1,0.4,1.4h3.8
		V17c-0.3-0.2-0.4-0.8-0.4-1.8V9c0-1.5-0.5-2.7-1.6-3.5c-0.9-0.7-2.1-1-4-1c-3.7,0-5.5,1.9-5.6,4.2h3.6c0.1-1,0.7-1.6,2-1.6
		c1.2,0,1.7,0.5,1.7,1.3c0,0.8-0.8,1.1-3.1,1.4c-2.5,0.3-4.7,1.2-4.7,3.9C13.4,16.2,15.1,17.5,17.6,17.5L17.6,17.5z M18.8,15
		c-1,0-1.7-0.4-1.7-1.4c0-0.9,0.6-1.3,2.1-1.7c0.8-0.2,1.5-0.4,2-0.6v1.5C21.3,14.1,20.3,15,18.8,15L18.8,15z"/>
	<path fill-rule="evenodd" clip-rule="evenodd" fill="#001F66" d="M0,21.2h3.9v-5.3h0c0.8,1,1.9,1.7,3.5,1.7c3.2,0,5.4-2.5,5.4-6.5
		c0-3.7-2-6.5-5.3-6.5c-1.7,0-2.9,0.7-3.7,1.8H3.7V4.9H0V21.2L0,21.2z M6.4,14.5c-1.7,0-2.6-1.4-2.6-3.4c0-2,0.9-3.5,2.6-3.5
		C8,7.7,8.8,9,8.8,11.2C8.8,13.2,7.9,14.5,6.4,14.5L6.4,14.5z"/>
	<path fill-rule="evenodd" clip-rule="evenodd" fill="#001F66" d="M44.9,17.3c1.1,0,1.8-0.1,2.1-0.2v-2.9c-0.1,0-0.5,0-0.9,0
		c-0.8,0-1.4-0.2-1.4-1.2V7.3H47V4.9h-2.2V1.1h-3.6v2.2c0,1.1-0.6,1.6-1.8,1.6v2.4h1.6v6.6C40.9,16.6,42.6,17.3,44.9,17.3L44.9,17.3
		z"/>
	<polygon fill-rule="evenodd" clip-rule="evenodd" fill="#001F66" points="87.6,37.5 91.5,37.5 91.5,20.3 87.6,20.3 87.6,37.5 	"/>
	<path fill-rule="evenodd" clip-rule="evenodd" fill="#001F66" d="M78.4,37.8c1.8,0,2.9-0.6,3.6-1.7h0c0.1,0.6,0.2,1.1,0.4,1.4h3.8
		v-0.2c-0.3-0.2-0.4-0.8-0.4-1.8v-6.2c0-1.5-0.5-2.7-1.6-3.5c-0.9-0.7-2.1-1-4-1c-3.7,0-5.5,1.9-5.6,4.2h3.6c0.1-1,0.7-1.6,2-1.6
		c1.2,0,1.7,0.5,1.7,1.3c0,0.8-0.8,1.1-3.1,1.4c-2.5,0.3-4.7,1.2-4.7,3.9C74.2,36.5,75.9,37.8,78.4,37.8L78.4,37.8z M79.6,35.3
		c-1,0-1.7-0.4-1.7-1.4c0-0.9,0.6-1.3,2.1-1.7c0.8-0.2,1.5-0.4,2-0.6v1.5C82.1,34.4,81.1,35.3,79.6,35.3L79.6,35.3z"/>
	<polygon fill-rule="evenodd" clip-rule="evenodd" fill="#001F66" points="60.7,23.5 64.6,23.5 64.6,20.3 60.7,20.3 60.7,23.5 	"/>
	<polygon fill-rule="evenodd" clip-rule="evenodd" fill="#001F66" points="60.7,37.5 64.6,37.5 64.6,25.2 60.7,25.2 60.7,37.5 	"/>
	<path fill-rule="evenodd" clip-rule="evenodd" fill="#001F66" d="M52.8,41.7c1.8,0,3.4-0.4,4.5-1.4c1-0.9,1.6-2.2,1.6-4.1V25.2
		h-3.7v1.3h0c-0.7-1-1.8-1.7-3.5-1.7c-3,0-5.2,2.5-5.2,6.1c0,3.8,2.6,5.8,5.3,5.8c1.5,0,2.4-0.6,3.1-1.4h0.1v1.2
		c0,1.5-0.7,2.4-2.4,2.4c-1.3,0-1.9-0.6-2.2-1.2h-3.8C47.2,40.3,49.5,41.7,52.8,41.7L52.8,41.7z M52.8,33.9c-1.5,0-2.4-1.2-2.4-3
		c0-1.9,1-3.1,2.4-3.1c1.6,0,2.5,1.4,2.5,3C55.3,32.6,54.5,33.9,52.8,33.9L52.8,33.9z"/>
	<polygon fill-rule="evenodd" clip-rule="evenodd" fill="#001F66" points="41.5,23.5 45.4,23.5 45.4,20.3 41.5,20.3 41.5,23.5 	"/>
	<polygon fill-rule="evenodd" clip-rule="evenodd" fill="#001F66" points="41.5,37.5 45.4,37.5 45.4,25.2 41.5,25.2 41.5,37.5 	"/>
	<path fill-rule="evenodd" clip-rule="evenodd" fill="#001F66" d="M32.4,37.9c1.6,0,2.9-0.8,3.6-2h0v1.7h3.7V20.3h-3.9v6.3h-0.1
		c-0.7-1-1.7-1.8-3.4-1.8c-3.2,0-5.4,2.7-5.4,6.5C27.1,35.4,29.3,37.9,32.4,37.9L32.4,37.9z M33.4,34.8c-1.5,0-2.4-1.3-2.4-3.5
		c0-2.1,0.9-3.5,2.5-3.5c1.7,0,2.5,1.5,2.5,3.6C36,33.4,35.1,34.8,33.4,34.8L33.4,34.8z"/>
	<path fill-rule="evenodd" clip-rule="evenodd" fill="#001F66" d="M71.1,37.6c1.1,0,1.8-0.1,2.1-0.2v-2.9c-0.1,0-0.5,0-0.9,0
		c-0.8,0-1.4-0.2-1.4-1.2v-5.8h2.2v-2.4H71v-3.8h-3.6v2.2c0,1.1-0.6,1.6-1.8,1.6v2.4h1.6v6.6C67.2,36.9,68.9,37.6,71.1,37.6
		L71.1,37.6z"/>
</g>
</svg>
